HIERARCHY
ROOT Hips
{
  OFFSET 15.2305 99.4777 14.5608
  CHANNELS 6 Xposition Yposition Zposition Zrotation Xrotation Yrotation
  JOINT ToSpine
  {
    OFFSET -0.0105055 1.38907 -7.13956
    CHANNELS 3 Zrotation Xrotation Yrotation
    JOINT Spine
    {
      OFFSET 0.0105055 10 1
      CHANNELS 3 Zrotation Xrotation Yrotation
      JOINT Spine1
      {
        OFFSET 0 12 1.60637
        CHANNELS 3 Zrotation Xrotation Yrotation
        JOINT Neck
        {
          OFFSET 0 27 2.26658
          CHANNELS 3 Zrotation Xrotation Yrotation
          JOINT Head
          {
            OFFSET 0 9 2.12705
            CHANNELS 3 Zrotation Xrotation Yrotation
            End Site
            {
              OFFSET 0 11 2
            }
          }
        }
        JOINT LeftShoulder
        {
          OFFSET 8 19.6109 2.86452
          CHANNELS 3 Zrotation Xrotation Yrotation
          JOINT LeftArm
          {
            OFFSET 12 1 0.681055
            CHANNELS 3 Zrotation Xrotation Yrotation
            JOINT LeftForeArm
            {
              OFFSET 19 0 -1.52608
              CHANNELS 3 Zrotation Xrotation Yrotation
              JOINT LeftHand
              {
                OFFSET 23 0 0
                CHANNELS 3 Zrotation Xrotation Yrotation
                End Site
                {
                  OFFSET 10 0 0
                }
              }
            }
          }
        }
        JOINT RightShoulder
        {
          OFFSET -8 19.6109 2.86452
          CHANNELS 3 Zrotation Xrotation Yrotation
          JOINT RightArm
          {
            OFFSET -12 1 0.681055
            CHANNELS 3 Zrotation Xrotation Yrotation
            JOINT RightForeArm
            {
              OFFSET -19 0 -1.52608
              CHANNELS 3 Zrotation Xrotation Yrotation
              JOINT RightHand
              {
                OFFSET -23 0 0
                CHANNELS 3 Zrotation Xrotation Yrotation
                End Site
                {
                  OFFSET -10 0 0
                }
              }
            }
          }
        }
      }
    }
  }
  JOINT LeftUpLeg
  {
    OFFSET 9 -7.17245 0
    CHANNELS 3 Zrotation Xrotation Yrotation
    JOINT LeftLeg
    {
      OFFSET 0 -44.1113 0
      CHANNELS 3 Zrotation Xrotation Yrotation
      JOINT LeftFoot
      {
        OFFSET 0 -36.1829 0
        CHANNELS 3 Zrotation Xrotation Yrotation
        JOINT LeftToeBase
        {
          OFFSET 0 -4.84184 13
          CHANNELS 3 Zrotation Xrotation Yrotation
          End Site
          {
            OFFSET 0 1 6
          }
        }
      }
    }
  }
  JOINT RightUpLeg
  {
    OFFSET -9 -7.17245 0
    CHANNELS 3 Zrotation Xrotation Yrotation
    JOINT RightLeg
    {
      OFFSET 0 -44.0551 0
      CHANNELS 3 Zrotation Xrotation Yrotation
      JOINT RightFoot
      {
        OFFSET 0 -36.1469 0
        CHANNELS 3 Zrotation Xrotation Yrotation
        JOINT RightToeBase
        {
          OFFSET 0 -4.92256 13
          CHANNELS 3 Zrotation Xrotation Yrotation
          End Site
          {
            OFFSET 0 1 6
          }
        }
      }
    }
  }
}
MOTION
Frames:	8
Frame Time:	0.0333333
15.2497 99.4889 14.5651 1.05954 -5.8662 2.68653 0 0 0 1.97206 4.89583 0.431679 -3.39176 2.54327 0.915192 7.39633 6.84782 -3.55712 -4.35449 -0.882911 0.0110386 -31.0336 3.61044 -6.21278 -38.8341 32.607 -13.6135 -6.12201 -11.6275 -6.27338 -9.02542 0.150199 -1.94475 25.2818 5.66332 14.3596 51.2825 14.5545 2.55402 3.73232 -3.77489 10.7337 2.68241 0.113103 4.83036 1.32062 4.86186 7.02954 -1.09276 8.94939 -14.3027 3.29621 -8.74938 0.252207 0.395415 0.758347 -1.81151 -1.49915 7.72363 -7.84168 -0.187289 5.83852 0.135495 -8.87315 -4.91422 -0.377802 3.24553 -11.9085 -2.42033 
15.3054 99.5139 14.5885 1.00056 -5.91153 2.62347 0 0 0 2.2427 4.97705 0.42323 -3.50488 2.51702 0.948633 6.86997 6.83025 -3.36967 -3.61968 -0.854421 -0.148456 -31.2352 3.6126 -6.16644 -38.4364 32.8683 -13.9069 -6.2242 -11.8744 -6.08721 -8.91985 0.152467 -1.94446 25.1918 5.64291 14.3443 51.2958 14.7507 2.58131 3.86471 -4.18731 10.8622 2.62267 0.106637 4.64368 1.31044 5.06904 6.99268 -1.0799 8.68301 -14.2671 3.44255 -8.73083 0.262915 0.382362 1.02865 -1.81293 -1.50031 7.73856 -7.75423 -0.170366 5.95957 1.36373 -9.9991 -3.68412 -0.323895 3.71099 -13.7942 -4.54534 
15.2998 99.4794 14.6248 1.12378 -5.9407 2.57247 0 0 0 2.23874 5.06955 0.488297 -3.64884 2.48843 1.03131 6.55123 6.38885 -3.14273 -2.94452 -0.14452 -0.182825 -31.2868 3.64165 -6.23069 -38.7193 31.7948 -14.1668 -6.06593 -11.0229 -5.20257 -8.81282 0.15435 -2.00278 25.2658 5.66682 14.3792 51.2363 14.2046 2.46234 3.29016 -2.23414 10.9091 2.13392 0.0786379 4.23206 1.14379 5.08333 6.94718 -1.03648 8.80259 -14.0862 3.31472 -8.87209 0.256535 0.385348 0.892261 -1.79838 -1.66713 7.82734 -7.84629 -0.0298842 5.87099 1.85993 -10.0419 -3.55198 -0.311947 3.807 -14.2111 -5.61363 
15.2889 99.4603 14.6528 1.14896 -5.86633 2.5201 0 0 0 2.05616 5.06119 0.505846 -3.39196 2.44536 0.995401 6.40494 6.19435 -3.04909 -2.89993 0.179674 -0.151946 -31.4247 3.62581 -6.15311 -38.5801 31.9571 -14.1164 -6.05233 -11.0533 -5.5372 -9.01989 0.136768 -1.73494 25.0147 5.64574 14.4486 51.5123 14.1418 2.51 3.20379 -1.90057 10.8414 1.75763 0.0650003 4.23466 1.09943 5.12421 6.89491 -0.995645 8.61977 -14.0448 3.35883 -8.8825 0.258795 0.298071 0.796511 -1.42285 -1.72355 7.70196 -7.85232 -0.0133372 5.99268 1.87286 -10.486 -3.43012 -0.31472 3.949 -14.8299 -5.24817 
15.2597 99.4844 14.7094 1.16891 -5.83421 2.70452 0 0 0 1.85442 5.03629 0.456068 -3.15275 2.43934 0.893939 6.33645 6.14639 -3.01127 -2.81487 0.187119 -0.159497 -31.3205 3.63114 -6.194 -38.7479 31.7682 -14.1024 -6.02278 -11.2179 -5.62035 -9.31318 0.132777 -1.6303 25.0064 5.63985 14.4348 51.4939 14.2394 2.4176 3.22608 -2.03716 11.0223 1.71442 0.0616734 4.13246 1.13225 5.11429 6.90642 -1.02976 8.60415 -14.2325 3.36452 -8.80026 0.259145 0.328079 0.889925 -1.56449 -1.66786 7.77436 -7.8486 -0.064278 5.92208 1.63647 -9.96983 -3.75233 -0.327511 3.76946 -14.0367 -5.4214 
15.2714 99.505 14.7434 1.17305 -5.74055 2.7347 0 0 0 1.76298 4.94645 0.456732 -2.89262 2.4515 0.848334 6.26943 6.27626 -2.9792 -3.05718 -0.188836 -0.100224 -31.6384 3.63004 -6.10996 -38.3962 31.9479 -14.243 -6.10971 -11.7305 -5.63165 -9.11032 0.147709 -1.85334 24.8079 5.62379 14.4919 51.5792 14.1649 2.38694 3.30146 -2.26601 10.861 1.66702 0.065383 4.50536 1.11564 5.14488 6.87588 -1.04011 8.36413 -14.2274 3.2573 -8.65643 0.246553 0.356107 0.474816 -1.59205 -1.656 7.67267 -7.82283 -0.165957 5.98875 1.38849 -9.70279 -3.91486 -0.332504 3.76416 -14.012 -5.10923 
15.2953 99.4953 14.7778 1.25221 -5.73476 2.67985 0 0 0 1.73307 4.96439 0.480702 -2.84923 2.47104 0.868552 6.12835 6.25085 -2.98514 -3.01394 -0.323644 -0.169971 -31.8142 3.63416 -6.07645 -38.2753 31.989 -14.1948 -6.12634 -11.6229 -5.90711 -9.05694 0.150731 -1.90209 24.5272 5.56399 14.4564 51.7163 14.0438 2.47224 3.19921 -1.93443 10.8605 2.16441 0.080549 4.25708 0.963285 5.30939 6.78136 -0.96891 8.06799 -14.1262 3.04086 -8.69435 0.231145 0.334957 0.810738 -1.57685 -1.82865 7.65623 -7.99324 -0.0548689 6.07498 1.67383 -9.87183 -3.97492 -0.341876 3.79383 -14.1443 -5.15502 
15.2854 99.478 14.794 1.22927 -5.69801 2.58165 0 0 0 1.81303 5.07067 0.479897 -2.97983 2.33085 0.889478 6.18368 6.16392 -2.975 -2.86257 -0.110427 -0.17266 -31.6714 3.61123 -6.05208 -38.6059 31.665 -14.0598 -5.98002 -10.8781 -5.88024 -8.88014 0.147697 -1.90227 24.6864 5.6135 14.5262 51.6522 14.2812 2.39627 3.1368 -1.47808 10.8866 1.89697 0.0697408 4.21007 0.984779 5.24899 6.83519 -1.03199 8.14369 -13.9743 3.42514 -8.65453 0.259111 0.329632 0.500743 -1.49155 -1.75837 7.61876 -7.85129 -0.0858555 5.99034 1.6494 -10.7235 -3.32328 -0.312075 4.01277 -15.1015 -5.03622 
